<svg width="48" height="48" viewBox="0 0 48 48" xmlns="http://www.w3.org/2000/svg">
    <g fill="#FFF" fill-rule="nonzero">
        <path d="M0 24C0 10.745 10.745 0 24 0s24 10.745 24 24-10.745 24-24 24S0 37.255 0 24zm30.242-4.714c.162 0 .322.001.481.01-.841-4.586-5.578-8.096-11.295-8.096C13.116 11.2 8 15.48 8 20.758c0 3.095 1.758 5.846 4.486 7.592l.104.067-1.104 3.458 4.132-2.104.194.056a13.495 13.495 0 0 0 4.384.464 7.412 7.412 0 0 1-.363-2.28c0-4.82 4.662-8.725 10.41-8.725zm-9.57 8.781c0 4.46 4.325 8.075 9.658 8.075a11.35 11.35 0 0 0 3.053-.413l.165-.047 3.489 1.779-.933-2.923.089-.056c2.303-1.475 3.79-3.799 3.79-6.415 0-4.458-4.323-8.073-9.653-8.073-5.333 0-9.657 3.615-9.657 8.073z"/>
        <path d="M23.405 15.913c.886 0 1.604.694 1.604 1.553 0 .857-.718 1.554-1.604 1.554-.887 0-1.604-.697-1.604-1.554 0-.859.717-1.553 1.604-1.553M32.332 25.286c0-.724.606-1.312 1.355-1.312.75 0 1.356.588 1.356 1.312 0 .726-.606 1.315-1.356 1.315-.749 0-1.355-.589-1.355-1.315M25.613 25.286c0-.724.608-1.312 1.356-1.312.75 0 1.357.588 1.357 1.312 0 .726-.608 1.315-1.357 1.315-.748 0-1.356-.589-1.356-1.315M15.451 19.02c-.886 0-1.605-.697-1.605-1.554 0-.859.719-1.553 1.605-1.553.887 0 1.607.694 1.607 1.553 0 .857-.72 1.554-1.607 1.554"/>
    </g>
</svg>
